# xmcd
#
# Track frame offsets: 
#        150
#        17126
#        38414
#        53758
#        73576
#        91520
#        110387
#        130274
#        152836
#        172309
#        194643
#        210737
#        228317
#        249888
#        266146
#        287949
#        307969
#        327872
#
# Disc length: 4671 seconds
#
# Revision: 2
# Processed by: cddbd v1.5.2PL0 Copyright (c) Steve Scherf et al.
# Submitted via: ExactAudioCopy v0.99pb3
#
DISCID=fb123d12
DTITLE=Michael Bolton - Til the End Of Forever
DYEAR=2004
DGENRE=R&B
TTITLE0=I'm Alive
TTITLE1=Til The End Of Forever
TTITLE2=Still The Love Of My Life
TTITLE3=Next Lifetime (with Liz Sharpe)
TTITLE4=Hear Me (with Jim Brickman)
TTITLE5=The Courage In Your Eyes
TTITLE6=Said I loved You But I Lied (Reggae Ver)
TTITLE7=Time Love And Tenderness (live)
TTITLE8=When A man Loves A Women (live)
TTITLE9=Go The Distance (Live)
TTITLE10=Nessun Dorma (Live)
TTITLE11=Dock Of The Bay (live)
TTITLE12=To Love Somebody (live)
TTITLE13=Haw Can We Be Lovers (live)
TTITLE14=Love Is A Wonderful Thing (Live)
TTITLE15=Soul Provider (live)
TTITLE16=Steel Bars (live)
TTITLE17=How Am I Supposed To Live Without You (Live)
EXTD=
EXTT0=
EXTT1=
EXTT2=
EXTT3=
EXTT4=
EXTT5=
EXTT6=
EXTT7=
EXTT8=
EXTT9=
EXTT10=
EXTT11=
EXTT12=
EXTT13=
EXTT14=
EXTT15=
EXTT16=
EXTT17=
PLAYORDER=
